<?xml version="1.0" encoding="UTF-8"?>
<svg id="Layer_1" data-name="Layer 1" xmlns="http://www.w3.org/2000/svg" viewBox="0 0 1190.55 841.89">
  <defs>
    <style>
      .cls-1 {
        stroke-width: 13.11px;
      }

      .cls-1, .cls-2, .cls-3 {
        fill: none;
        stroke: #fff;
        stroke-miterlimit: 10;
      }

      .cls-2 {
        stroke-width: 11.86px;
      }

      .cls-3 {
        stroke-width: 12.64px;
      }
    </style>
  </defs>
  <path class="cls-1" d="m333.49,311.87c-17.2.2-64.21,42-68.06,53.02-4.94,14.16,18.51,45.95,32.29,45.92,15.43-.03,65.12-42.85,69.67-56.81,4.4-13.49-17.29-42.32-33.9-42.13Z"/>
  <polyline class="cls-1" points="265.43 364.9 246.64 414.81 303.78 257.83"/>
  <path class="cls-1" d="m439.68,311.87c-17.2.2-64.21,42-68.06,53.02-4.94,14.16,18.51,45.95,32.29,45.92,15.43-.03,65.12-42.85,69.67-56.81,4.4-13.49-17.29-42.32-33.9-42.13Z"/>
  <polyline class="cls-1" points="467.26 380.63 454.19 414.81 493.32 307.3"/>
  <path class="cls-1" d="m559.66,311.87c-17.2.2-64.21,42-68.06,53.02-4.94,14.16,18.51,45.95,32.29,45.92,15.43-.03,65.12-42.85,69.67-56.81,4.4-13.49-17.29-42.32-33.9-42.13Z"/>
  <polyline class="cls-1" points="491.6 364.9 472.81 414.81 529.95 257.83"/>
  <path class="cls-1" d="m665.85,311.87c-17.2.2-64.21,42-68.06,53.02-4.94,14.16,18.51,45.95,32.29,45.92,15.43-.03,65.12-42.85,69.67-56.81,4.4-13.49-17.29-42.32-33.9-42.13Z"/>
  <polyline class="cls-1" points="693.43 380.63 680.36 414.81 719.49 307.3"/>
  <polyline class="cls-1" points="718.32 364.9 699.53 414.81 756.67 257.83"/>
  <path class="cls-1" d="m800.77,311.87c-17.2.2-64.21,42-68.06,53.02-4.94,14.16,18.51,45.95,32.29,45.92,15.43-.03,65.12-42.85,69.67-56.81,4.4-13.49-17.29-42.32-33.9-42.13Z"/>
  <polyline class="cls-1" points="828.34 380.63 815.28 414.81 854.41 307.3"/>
  <polyline class="cls-1" points="847.51 380.91 834.44 415.1 873.57 307.59"/>
  <path class="cls-1" d="m866.45,327.15l39.13-14.53c5.23-1.9,10.36-1.99,14.35-.27l23.98,14.8"/>
  <path class="cls-1" d="m480.88,530.01c-17.06-.2-33.64-42-29.46-53.02,5.37-14.16,51.95-45.95,65.71-45.92,15.41.03,33.93,42.85,28.32,56.81-5.42,13.49-48.1,42.32-64.57,42.13Z"/>
  <polyline class="cls-1" points="451.41 476.99 468.96 427.08 411.82 584.06"/>
  <polyline class="cls-1" points="558.04 500.11 544.97 534.3 584.1 426.79"/>
  <path class="cls-1" d="m576.98,446.35l39.13-14.53c5.23-1.9,10.36-1.99,14.35-.27l23.98,14.8"/>
  <path class="cls-1" d="m643.08,477.57c5.37-14.16,47.79-46.52,61.55-46.49,15.41.03,26.48,26.53,20.87,40.49-5.42,13.49-86.6,17.03-82.42,6.01Z"/>
  <path class="cls-3" d="m826.17,462.06c5.9-14.95-16.29-31.55-29.68-31.58-11.96-.03-55.89,31.27-51.98,42.71,3.11,9.1,28.25,3.9,37.98,4.08,15.59.29,36.67,6.29,28.11,27.57-6.33,15.73-35.23,24.55-45.49,24.17-11.38-.43-39.46-14.32-39.46-14.32"/>
  <path class="cls-2" d="m704.69,512.35c-13.74,9.99-31.5,16-39.93,15.88-7.2-.1-15.91-11.64-19.5-19.53-2.03-4.46-4.52-13.31-4.38-17.08.6-16.03,2.2-14.06,2.2-14.06"/>
  <path class="cls-3" d="m919.42,463.65c5.9-14.95-16.29-31.55-29.68-31.58-11.96-.03-55.89,31.27-51.98,42.71,3.11,9.1,28.25,3.9,37.98,4.08,15.59.29,36.67,6.29,28.11,27.57-6.33,15.73-35.23,24.55-45.49,24.17-11.38-.43-39.46-14.32-39.46-14.32"/>
</svg>