<?xml version="1.0" encoding="UTF-8"?>
<svg id="Layer_1" data-name="Layer 1" xmlns="http://www.w3.org/2000/svg" viewBox="0 0 1190.55 841.89">
  <defs>
    <style>
      .cls-1 {
        stroke-width: 12.42px;
      }

      .cls-1, .cls-2, .cls-3 {
        fill: none;
        stroke: #b2452f;
        stroke-miterlimit: 10;
      }

      .cls-2 {
        stroke-width: 11.65px;
      }

      .cls-3 {
        stroke-width: 12.87px;
      }
    </style>
  </defs>
  <path class="cls-3" d="m338.17,313.82c-16.89.19-63.06,41.25-66.84,52.07-4.85,13.91,18.18,45.12,31.71,45.1,15.15-.03,63.95-42.08,68.42-55.79,4.32-13.25-16.98-41.56-33.29-41.38Z"/>
  <polyline class="cls-3" points="271.33 365.9 252.87 414.92 308.99 260.74"/>
  <path class="cls-3" d="m442.46,313.82c-16.89.19-63.06,41.25-66.84,52.07-4.85,13.91,18.18,45.12,31.71,45.1,15.15-.03,63.95-42.08,68.42-55.79,4.32-13.25-16.98-41.56-33.29-41.38Z"/>
  <polyline class="cls-3" points="469.55 381.35 456.72 414.92 495.15 309.33"/>
  <path class="cls-3" d="m560.3,313.82c-16.89.19-63.06,41.25-66.84,52.07-4.85,13.91,18.18,45.12,31.71,45.1,15.15-.03,63.95-42.08,68.42-55.79,4.32-13.25-16.98-41.56-33.29-41.38Z"/>
  <polyline class="cls-3" points="493.46 365.9 475 414.92 531.12 260.74"/>
  <path class="cls-3" d="m664.59,313.82c-16.89.19-63.06,41.25-66.84,52.07-4.85,13.91,18.18,45.12,31.71,45.1,15.15-.03,63.95-42.08,68.42-55.79,4.32-13.25-16.98-41.56-33.29-41.38Z"/>
  <polyline class="cls-3" points="691.67 381.35 678.84 414.92 717.27 309.33"/>
  <polyline class="cls-3" points="716.12 365.9 697.67 414.92 753.78 260.74"/>
  <path class="cls-3" d="m797.09,313.82c-16.89.19-63.06,41.25-66.84,52.07-4.85,13.91,18.18,45.12,31.71,45.1,15.15-.03,63.95-42.08,68.42-55.79,4.32-13.25-16.98-41.56-33.29-41.38Z"/>
  <polyline class="cls-3" points="824.18 381.35 811.35 414.92 849.78 309.33"/>
  <polyline class="cls-3" points="843 381.63 830.17 415.2 868.6 309.62"/>
  <path class="cls-3" d="m861.6,328.83l38.43-14.27c5.14-1.86,10.18-1.95,14.09-.26l23.55,14.53"/>
  <path class="cls-3" d="m482.92,528.06c-16.75-.19-33.04-41.25-28.94-52.07,5.27-13.91,51.02-45.12,64.54-45.1,15.13.03,33.32,42.08,27.81,55.79-5.32,13.25-47.24,41.56-63.41,41.38Z"/>
  <polyline class="cls-3" points="453.99 475.99 471.22 426.97 415.1 581.15"/>
  <polyline class="cls-3" points="558.7 498.7 545.87 532.27 584.3 426.68"/>
  <path class="cls-3" d="m577.31,445.9l38.43-14.27c5.14-1.86,10.18-1.95,14.09-.26l23.55,14.53"/>
  <path class="cls-3" d="m642.22,476.55c5.27-13.91,46.94-45.69,60.45-45.66,15.13.03,26,26.05,20.5,39.76-5.32,13.25-85.05,16.72-80.95,5.9Z"/>
  <path class="cls-1" d="m822.04,461.32c5.79-14.68-16-30.99-29.15-31.02-11.74-.03-54.89,30.71-51.05,41.95,3.05,8.94,27.75,3.83,37.31,4.01,15.31.28,36.02,6.18,27.6,27.08-6.22,15.45-34.6,24.11-44.67,23.74-11.18-.42-38.76-14.07-38.76-14.07"/>
  <path class="cls-2" d="m702.74,510.72c-13.5,9.81-30.94,15.71-39.22,15.59-7.07-.1-15.62-11.43-19.15-19.18-2-4.38-4.44-13.07-4.3-16.77.59-15.74,2.16-13.8,2.16-13.8"/>
  <path class="cls-1" d="m913.63,462.88c5.79-14.68-16-30.99-29.15-31.02-11.74-.03-54.89,30.71-51.05,41.95,3.05,8.94,27.75,3.83,37.31,4.01,15.31.28,36.02,6.18,27.6,27.08-6.22,15.45-34.6,24.11-44.67,23.74-11.18-.42-38.76-14.07-38.76-14.07"/>
</svg>