<?xml version="1.0" encoding="UTF-8"?>
<svg id="Layer_1" data-name="Layer 1" xmlns="http://www.w3.org/2000/svg" xmlns:xlink="http://www.w3.org/1999/xlink" viewBox="0 0 1190.55 841.89">
  <defs>
    <style>
      .cls-1, .cls-2 {
        fill: none;
      }

      .cls-3 {
        fill: url(#New_Pattern_5);
      }

      .cls-2 {
        stroke: #b2452f;
        stroke-miterlimit: 10;
        stroke-width: .5px;
      }
    </style>
    <pattern id="New_Pattern_5" data-name="New Pattern 5" x="0" y="0" width="124.94" height="77.73" patternTransform="translate(-5878.43 -174.33)" patternUnits="userSpaceOnUse" viewBox="0 0 124.94 77.73">
      <g>
        <rect class="cls-1" x="0" y="0" width="124.94" height="77.73"/>
        <path class="cls-2" d="m105.91,15.64c0-.34-.61-.61-1.35-.6l-3.67.02c-1.28,0-2.32-.46-2.32-1.03v-2.07s-4.51,0-6.78,0c-.72,0-.41-.31-.67-.33-2.45-.16-1.33-1.83-1.51-2.54-.39-1.53-2.09-2.17-3.18-2.62-2.09-.85-7.31-1.68-9-2-4.17-.78-8.33-2.01-11.48-3.46-.03-.01-.06,0-.09,0C63.7,0,61.21,0,59.05,1.01c-.04.02-.07.03-.1.05-3.15,1.45-7.32,2.68-11.48,3.46-1.69.32-6.91,1.15-9,2-1.1.44-2.8,1.09-3.18,2.62-.18.71.95,2.38-1.51,2.54-.26.02.05.33-.67.33-2.27,0-6.78,0-6.78,0v2.07c0,.58-1.04,1.04-2.32,1.03l-3.67-.02c-.75,0-1.35.27-1.35.6v3.76c0,.47-.51.27-.53.44-.25,1.61-2.94.87-4.09.99-2.47.25-3.5,1.37-4.22,2.09-1.37,1.37-2.71,4.8-3.22,5.92-1.25,2.74-3.24,5.48-5.57,7.55-.02.02-.05.04-.08.07-1.38,1.2-1.38,3.33,0,4.53.03.03.06.05.09.08,2.33,2.07,4.32,4.81,5.57,7.55.51,1.11,1.85,4.54,3.22,5.92.72.72,1.75,1.84,4.22,2.09,1.15.12,3.84-.62,4.09.99.03.17.53-.03.53.44v3.95c0,.34.61.61,1.35.6l3.67-.02c1.28,0,2.32.46,2.32,1.03v2.07s4.51,0,6.78,0c.72,0,.41.31.67.33,2.45.16,1.33,1.83,1.51,2.54.39,1.53,2.09,2.17,3.18,2.62,2.09.85,7.31,1.68,9,2,4.17.78,8.33,2.01,11.48,3.46.03.02.07.03.1.05,2.18,1.02,4.7,1.03,6.88.01.04-.02.09-.04.13-.06,3.15-1.45,7.32-2.68,11.48-3.46,1.69-.32,6.91-1.15,9-2,1.1-.44,2.8-1.09,3.18-2.62.18-.71-.95-2.38,1.51-2.54.26-.02-.05-.33.67-.33,2.27,0,6.78,0,6.78,0v-2.07c0-.58,1.04-1.04,2.32-1.03l3.67.02c.75,0,1.35-.27,1.35-.6v-4.03c0-.47.51-.27.53-.44.25-1.61,2.94-.87,4.09-.99,2.47-.25,3.5-1.37,4.22-2.09,1.37-1.37,2.71-4.8,3.22-5.92,1.25-2.74,3.24-5.48,5.57-7.55.01-.01.02-.02.04-.03,1.36-1.2,1.34-3.31-.03-4.5-.03-.02-.05-.05-.08-.07-2.33-2.07-4.32-4.81-5.57-7.55-.51-1.11-1.85-4.54-3.22-5.92-.72-.72-1.75-1.84-4.22-2.09-1.15-.12-3.84.62-4.09-.99-.03-.17-.53.03-.53-.44l-.04-3.8Z"/>
      </g>
    </pattern>
  </defs>
  <rect class="cls-3" x="0" width="1190.55" height="841.89"/>
</svg>